<?xml version="1.0" standalone="no"?><svg xmlns="http://www.w3.org/2000/svg" viewBox="0 0 1440 320">

<defs>
  <linearGradient id="grad1" x1="0%" y1="0%" x2="0%" y2="100%">
    <stop offset="0%" style="stop-color:rgb(205, 224, 247);stop-opacity:1" />
    <stop offset="100%" style="stop-color:rgb(255, 255, 255);stop-opacity:1" />

    
  </linearGradient>
</defs>


<path fill="url(#grad1)" fill-opacity="1" d="M0,192L20,186.7C40,181,80,171,120,149.3C160,128,200,96,240,106.7C280,117,320,171,360,176C400,181,440,139,480,138.7C520,139,560,181,600,176C640,171,680,117,720,96C760,75,800,85,840,122.7C880,160,920,224,960,245.3C1000,267,1040,245,1080,213.3C1120,181,1160,139,1200,112C1240,85,1280,75,1320,74.7C1360,75,1400,85,1420,90.7L1440,96L1440,320L1420,320C1400,320,1360,320,1320,320C1280,320,1240,320,1200,320C1160,320,1120,320,1080,320C1040,320,1000,320,960,320C920,320,880,320,840,320C800,320,760,320,720,320C680,320,640,320,600,320C560,320,520,320,480,320C440,320,400,320,360,320C320,320,280,320,240,320C200,320,160,320,120,320C80,320,40,320,20,320L0,320Z"></path></svg>
