<?xml version="1.0" standalone="no"?><svg xmlns="http://www.w3.org/2000/svg" viewBox="0 0 1440 320">

<defs>
  <linearGradient id="grad1" x1="0%" y1="0%" x2="0%" y2="100%">
    <stop offset="0%" style="stop-color:rgb(255, 255, 255);stop-opacity:1" />
    <stop offset="100%" style="stop-color:rgb(205, 224, 247);stop-opacity:1" />
  </linearGradient>
</defs>

<path fill="url(#grad1)" fill-opacity="1" d="M0,192L20,186.7C40,181,80,171,120,149.3C160,128,200,96,240,106.7C280,117,320,171,360,176C400,181,440,139,480,138.7C520,139,560,181,600,176C640,171,680,117,720,96C760,75,800,85,840,122.7C880,160,920,224,960,245.3C1000,267,1040,245,1080,213.3C1120,181,1160,139,1200,112C1240,85,1280,75,1320,74.7C1360,75,1400,85,1420,90.7L1440,96L1440,0L1420,0C1400,0,1360,0,1320,0C1280,0,1240,0,1200,0C1160,0,1120,0,1080,0C1040,0,1000,0,960,0C920,0,880,0,840,0C800,0,760,0,720,0C680,0,640,0,600,0C560,0,520,0,480,0C440,0,400,0,360,0C320,0,280,0,240,0C200,0,160,0,120,0C80,0,40,0,20,0L0,0Z"></path></svg>
