<?xml version="1.0" standalone="no"?><svg xmlns="http://www.w3.org/2000/svg" viewBox="0 0 1440 320">

<defs>
  <linearGradient id="grad1" x1="0%" y1="0%" x2="0%" y2="100%">
    <stop offset="0%" style="stop-color:rgb(255, 255, 255);stop-opacity:1" />
    <stop offset="100%" style="stop-color:rgb(205, 224, 247);stop-opacity:3" />
  </linearGradient>
</defs>

  <path fill="url(#grad1)" fill-opacity="2" d="M0,192L24,170.7C48,149,96,107,144,96C192,85,240,107,288,138.7C336,171,384,213,432,208C480,203,528,149,576,154.7C624,160,672,224,720,245.3C768,267,816,245,864,234.7C912,224,960,224,1008,240C1056,256,1104,288,1152,272C1200,256,1248,192,1296,165.3C1344,139,1392,149,1416,154.7L1440,160L1440,0L1416,0C1392,0,1344,0,1296,0C1248,0,1200,0,1152,0C1104,0,1056,0,1008,0C960,0,912,0,864,0C816,0,768,0,720,0C672,0,624,0,576,0C528,0,480,0,432,0C384,0,336,0,288,0C240,0,192,0,144,0C96,0,48,0,24,0L0,0Z"></path>

</svg>
